<?xml version="1.0" encoding="UTF-8"?>
<!DOCTYPE svg PUBLIC "-//W3C//DTD SVG 1.1//EN" "http://www.w3.org/Graphics/SVG/1.1/DTD/svg11.dtd">
<!-- Creator: CorelDRAW 2018 (64-Bit Evaluation Version) -->
<svg xmlns="http://www.w3.org/2000/svg" xml:space="preserve" width="424px" height="424px" version="1.1" shape-rendering="geometricPrecision" text-rendering="geometricPrecision" image-rendering="optimizeQuality" fill-rule="evenodd" clip-rule="evenodd"
viewBox="0 0 126.062 126.156"
 xmlns:xlink="http://www.w3.org/1999/xlink">
 <g id="Layer_x0020_1">
  <metadata id="CorelCorpID_0Corel-Layer"/>
  <g id="_2565614761664">
   <path fill="#5D5F64" d="M59.479 0.153c-9.109,0.7 -17.841,2.802 -24.992,6.71 -8.326,4.549 -11.6,7.085 -17.927,13.597 -16.524,17.007 -22.293,47.089 -9.85,71.15 3.444,6.661 8.164,12.983 13.574,17.949 23.853,21.893 59.988,22.312 85.252,0.153l5.773 -6.122c16.158,-19.218 19.438,-46.707 7.882,-69.123 -2.395,-4.647 -6.167,-10.348 -9.661,-13.835 -4.731,-4.722 -6.654,-6.934 -12.925,-10.872 -10.503,-6.595 -24.054,-10.611 -37.126,-9.607z"/>
   <path fill="white" d="M25.844 94.533c1.545,3.241 10.804,10.008 14.982,12.046 6.951,3.391 13.124,5.208 21.86,5.334 13.223,0.19 25.025,-5.005 34.031,-13.679 1.095,-1.055 2.309,-2.384 3.459,-3.354 -1.316,-5.007 -8.399,-10.82 -13.926,-13.202 -3.061,-1.32 -7.701,-2.535 -11.368,-2.28 -3.838,0.267 -7.764,3.329 -17.819,1.389 -1.836,-0.354 -3.872,-1.104 -5.44,-1.32 -6.904,-0.952 -15.778,3.243 -20.606,8.085 -0.318,0.318 -0.595,0.518 -0.94,0.84 -0.68,0.635 -1.012,1.184 -1.604,1.964 -0.914,1.206 -1.825,2.7 -2.629,4.177z"/>
   <path fill="white" d="M59.603 24.772c-11.516,2.018 -20.542,11.861 -18.709,25.525 1.468,10.949 12.356,20.737 25.366,18.642 11.362,-1.829 20.63,-11.829 18.846,-25.338 -1.451,-10.984 -12.353,-21.134 -25.503,-18.829z"/>
  </g>
 </g>
</svg>
